<svg width="138" height="43" viewBox="0 0 138 43" fill="none" xmlns="http://www.w3.org/2000/svg">
<path d="M16.7146 0C6.77499 0 0 6.76605 0 16.6925C0 26.441 6.90871 33.118 16.7146 33.118C21.1273 33.118 25.5399 32.2277 29.7297 30.0021V13.8882H17.6506V18.9627H24.1136V26.3965C21.885 27.6429 19.1215 28.0435 16.7592 28.0435C9.98419 28.0435 5.88354 22.8354 5.88354 16.3364C5.88354 10.06 10.2516 5.07453 16.7146 5.07453C19.6564 5.07453 22.821 6.09834 24.9605 8.14596L29.1057 3.9617C25.7628 0.934781 21.0827 0 16.7146 0Z" fill="#22322F"/>
<path d="M45.8049 10.4161C42.9968 10.4161 40.6345 11.8851 39.4756 14.3333H39.3865V10.9503H34.0378V32.3168H39.3865V21.1884C39.3865 18.3395 41.0802 15.4907 45.1363 15.4907C45.9386 15.4907 46.6963 15.6242 47.7215 15.8913V10.7277C47.0083 10.5497 46.6072 10.4161 45.8049 10.4161Z" fill="#22322F"/>
<path d="M58.5528 10.4161C54.363 10.4161 51.3766 11.8851 49.46 13.8437L52.2681 16.648C53.739 15.3126 55.7447 14.4224 57.9734 14.4224C60.9151 14.4224 62.8763 15.8913 62.8763 18.3841V19.0072H61.2271C52.0452 19.0072 48.0783 21.5 48.0783 26.441C48.0783 30.3582 51.4658 32.8509 55.8785 32.8509C58.7311 32.8509 61.2271 31.7826 62.7426 29.3789H62.8763V32.3168H67.6901V19.5414C67.6901 14.5114 65.8626 10.4161 58.5528 10.4161ZM53.427 26.0404C53.427 23.7702 56.2796 22.7464 61.0043 22.7464H62.5643V24.0818C62.5643 26.7971 60.8705 28.8447 57.2156 28.8447C55.2099 28.8447 53.427 27.8654 53.427 26.0404Z" fill="#22322F"/>
<path d="M68.6904 10.9503L77.4266 32.3168H83.1318L91.556 10.9503H86.0736L80.3238 25.9068H80.2346L74.5294 10.9503H68.6904Z" fill="#22322F"/>
<path d="M95.5625 0.489647C93.6459 0.489647 92.175 1.95859 92.175 3.69462C92.175 5.43064 93.6459 6.89958 95.5625 6.89958C97.4791 6.89958 99.0392 5.6087 99.0392 3.69462C99.0392 1.86956 97.5237 0.489647 95.5625 0.489647ZM92.9328 10.9503V32.3168H98.2814V10.9503H92.9328Z" fill="#22322F"/>
<path d="M104.481 4.76294V10.9503H100.069V15.4907H104.481V25.5062C104.481 30.8923 106.443 32.8509 111.479 32.8509C112.683 32.8509 114.688 32.6284 115.714 32.1387V27.6429C115.268 27.999 114.154 28.3106 112.816 28.3106C110.722 28.3106 109.83 27.2422 109.83 24.9721V15.4907H115.714V10.9503H109.83V4.76294H104.481Z" fill="#22322F"/>
<path d="M115.134 10.9503L124.272 32.4948L123.336 34.8095C122.355 37.1687 121.82 38.1925 119.012 38.1925C118.076 38.1925 117.14 37.97 116.293 37.6584L115.625 42.4658C116.962 42.8219 118.344 43 119.725 43C125.074 43 126.5 40.3737 128.239 35.9669L138 10.9503H132.428L127.08 25.7733H126.991L121.018 10.9503H115.134Z" fill="#22322F"/>
</svg>
